<svg id="Layer_1" data-name="Layer 1" xmlns="http://www.w3.org/2000/svg" viewBox="0 0 170 55"><defs><style>.cls-1{fill:#010101;}.cls-2{fill:#fcbe36;}.cls-3{fill:#da1f33;}</style></defs><path class="cls-1" d="M42.82,49.21H39.63v3.07H39.1V45.74h4.17v.46H39.63v2.56h3.19Z"/><path class="cls-1" d="M43.86,49.78A2.62,2.62,0,0,1,44.45,48,1.94,1.94,0,0,1,46,47.33a2,2,0,0,1,1.57.69,2.62,2.62,0,0,1,.59,1.76v.15a2.6,2.6,0,0,1-.59,1.76,1.94,1.94,0,0,1-1.56.69,2,2,0,0,1-1.57-.69,2.6,2.6,0,0,1-.59-1.76Zm.54.15a2.37,2.37,0,0,0,.43,1.42,1.52,1.52,0,0,0,2.37,0,2.3,2.3,0,0,0,.43-1.42v-.15a2.25,2.25,0,0,0-.43-1.41A1.39,1.39,0,0,0,46,47.79a1.37,1.37,0,0,0-1.18.58,2.32,2.32,0,0,0-.43,1.41Z"/><path class="cls-1" d="M51.53,47.88l-.4,0a1.24,1.24,0,0,0-.84.28,1.58,1.58,0,0,0-.46.79v3.35h-.54V47.42h.47l.07.81v.05a1.73,1.73,0,0,1,.57-.7,1.37,1.37,0,0,1,.84-.25l.2,0,.16,0Z"/><path class="cls-1" d="M52.88,47.42l0,.81a1.67,1.67,0,0,1,.62-.67,1.83,1.83,0,0,1,.93-.23,1.55,1.55,0,0,1,.93.27,1.49,1.49,0,0,1,.54.82,1.74,1.74,0,0,1,.63-.8,1.68,1.68,0,0,1,1-.29,1.44,1.44,0,0,1,1.2.52,2.51,2.51,0,0,1,.42,1.6v2.83h-.54V49.43a2,2,0,0,0-.32-1.27,1.08,1.08,0,0,0-.88-.37,1.22,1.22,0,0,0-1,.39,1.82,1.82,0,0,0-.42,1v3.09h-.54V49.43a2,2,0,0,0-.32-1.26,1.11,1.11,0,0,0-.88-.38,1.36,1.36,0,0,0-.91.29,1.54,1.54,0,0,0-.47.78v3.42H52.4V47.42Z"/><path class="cls-1" d="M62.41,52.38a2,2,0,0,1-1.52-.68,2.45,2.45,0,0,1-.6-1.7v-.25a2.53,2.53,0,0,1,.6-1.73,1.85,1.85,0,0,1,1.45-.69,1.79,1.79,0,0,1,1.41.57,2.16,2.16,0,0,1,.51,1.51v.46H60.83V50a2.16,2.16,0,0,0,.43,1.37,1.38,1.38,0,0,0,1.15.55,2.46,2.46,0,0,0,.86-.14,1.66,1.66,0,0,0,.6-.4l.23.37a2,2,0,0,1-.69.46A2.72,2.72,0,0,1,62.41,52.38Zm-.07-4.59a1.29,1.29,0,0,0-1,.45,2,2,0,0,0-.47,1.15v0h2.85v-.14a1.57,1.57,0,0,0-.38-1.06A1.28,1.28,0,0,0,62.34,47.79Z"/><path class="cls-1" d="M67.56,47.88l-.4,0a1.23,1.23,0,0,0-.83.28,1.51,1.51,0,0,0-.46.79v3.35h-.54V47.42h.47l.07.81v.05a1.71,1.71,0,0,1,.56-.7,1.42,1.42,0,0,1,.85-.25l.2,0,.16,0Z"/><path class="cls-1" d="M69.06,52.28h-.53v-7h.53Z"/><path class="cls-1" d="M71.93,51l.17.58h0l1.47-4.13h.6l-2.11,5.64a2.86,2.86,0,0,1-.49.84,1.12,1.12,0,0,1-.88.35l-.23,0-.2,0,.06-.45.18,0h.17a.72.72,0,0,0,.56-.25,2.28,2.28,0,0,0,.36-.64l.26-.66L70,47.42h.59Z"/><path class="cls-1" d="M82,45.74v4.44a2,2,0,0,1-.66,1.63,2.48,2.48,0,0,1-1.7.57A2.44,2.44,0,0,1,78,51.81a2.06,2.06,0,0,1-.65-1.63V45.74h.54v4.43a1.66,1.66,0,0,0,.5,1.29,1.8,1.8,0,0,0,1.29.46A1.92,1.92,0,0,0,81,51.47a1.69,1.69,0,0,0,.5-1.3V45.74Z"/><path class="cls-1" d="M84.32,45.74l2.41,5.76h0l2.41-5.76h.71v6.54h-.53V49.39l0-2.86h0l-2.43,5.76h-.37l-2.43-5.73h0l.05,2.84v2.89h-.53V45.74Z"/><path class="cls-1" d="M96.18,45.74v4.44a2,2,0,0,1-.66,1.63,2.48,2.48,0,0,1-1.7.57,2.45,2.45,0,0,1-1.69-.57,2.09,2.09,0,0,1-.64-1.63V45.74H92v4.43a1.66,1.66,0,0,0,.5,1.29,1.77,1.77,0,0,0,1.29.46,1.91,1.91,0,0,0,1.31-.45,1.67,1.67,0,0,0,.51-1.3V45.74Z"/><path class="cls-1" d="M102.28,50.24v0a2.23,2.23,0,0,1-.7,1.54,2.33,2.33,0,0,1-1.65.57,2.19,2.19,0,0,1-1.76-.79,3,3,0,0,1-.67-2V48.48a3,3,0,0,1,.67-2,2.19,2.19,0,0,1,1.76-.8,2.38,2.38,0,0,1,1.66.56,2.25,2.25,0,0,1,.69,1.55v0h-.5a2.05,2.05,0,0,0-.56-1.25,1.82,1.82,0,0,0-1.28-.43,1.66,1.66,0,0,0-1.38.67,2.71,2.71,0,0,0-.51,1.7v1.07a2.75,2.75,0,0,0,.51,1.72,1.68,1.68,0,0,0,1.38.66,1.81,1.81,0,0,0,1.28-.42,2,2,0,0,0,.56-1.26Z"/><ellipse class="cls-2" cx="13.59" cy="16.19" rx="3.47" ry="0.97" transform="translate(-4.81 5.79) rotate(-20.51)"/><path class="cls-2" d="M23,15.21a14.24,14.24,0,0,0-3.36-.76h0a0,0,0,0,0,0,0h0a.87.87,0,0,1,.57.45c.36,1-2.11,2.78-5.52,4a20.45,20.45,0,0,1-2,.65l-.82,3a31.46,31.46,0,0,0,3.77-1.17c4.75-1.77,7.49-3.82,8-5.37a.75.75,0,0,0,0-.42C23.48,15.53,23.37,15.36,23,15.21Z"/><path class="cls-3" d="M30.9,22.28s0,0,0,0l0,0c.14,2-5,5.61-11.92,8.2-.66.25-1.32.48-2,.69L15.93,35c1.31-.36,2.71-.81,4.19-1.36,5.62-2.11,9.48-4.59,11.47-6.91a1.67,1.67,0,0,0,.4-1.39,11.32,11.32,0,0,0-.53-1.75A13.75,13.75,0,0,0,30.9,22.28Z"/><path class="cls-3" d="M28.63,19a14.3,14.3,0,0,0-2.31-2s0,0,0,0,0,0,0,0a1.13,1.13,0,0,1,.12.21c.61,1.64-3.78,4.8-9.8,7.06A30.36,30.36,0,0,1,7.7,26.31L6.5,29.7c2.56.18,6.44-.52,11.28-2.33,5-1.89,8.51-4,10.26-5.87a3.71,3.71,0,0,0,.74-1.19A1.32,1.32,0,0,0,28.63,19Z"/><path d="M32.33,29.24h0c-1,2.06-5.41,5-11.16,7.12a40.24,40.24,0,0,1-7.65,2.08l-.92,2.65a33.36,33.36,0,0,0,9.5-2.24c2.63-1,7.3-3.2,9.06-5.6a8.12,8.12,0,0,0,1.21-4S32.34,29.24,32.33,29.24Z"/><path d="M30,36.4h0a28,28,0,0,1-7.43,4.11c-.67.25-1.35.47-2,.67l-.38,1.38A14.26,14.26,0,0,0,30,36.42,0,0,0,0,0,30,36.4Z"/><path class="cls-1" d="M124.45,29.82h-2.92l-.82,2.31H120l2.67-7.25h.76L126,32.13h-.75ZM123,25.63s-.16.6-.28.94l-1,2.63h2.5l-.95-2.63c-.13-.34-.28-.94-.28-.94Z"/><path class="cls-1" d="M127.94,30.78a2.86,2.86,0,0,0,1.9.79,1.3,1.3,0,0,0,1.44-1.25c0-1.83-3.62-1.37-3.62-3.62a2.09,2.09,0,0,1,2.26-1.95,2.8,2.8,0,0,1,1.94.71l-.35.59a2.49,2.49,0,0,0-1.59-.61,1.37,1.37,0,0,0-1.52,1.24c0,1.73,3.62,1.23,3.62,3.61a2,2,0,0,1-2.2,2,3.19,3.19,0,0,1-2.3-.92Z"/><path class="cls-1" d="M134.43,24.88h.72v7.25h-.72Z"/><path class="cls-1" d="M141.66,29.82h-2.92l-.83,2.31h-.75l2.66-7.25h.76l2.67,7.25h-.76Zm-1.47-4.19s-.15.6-.28.94l-1,2.63h2.5l-.95-2.63c-.12-.34-.28-.94-.28-.94Z"/><path class="cls-1" d="M38.85,21.05h2.71v9.56a3,3,0,0,0,3.3,3.13,3,3,0,0,0,3.32-3.16V21.05h2.71v9.56c0,3.34-2.42,5.6-6,5.6s-6-2.26-6-5.6Z"/><path class="cls-1" d="M55.22,21.05h2.9L61,28.42c.33.88.75,2.19.75,2.19h.05s.39-1.31.73-2.19l2.92-7.37h2.9L69.59,36H66.9l-.63-8.34c-.07-1,0-2.31,0-2.31h0s-.44,1.45-.79,2.31L63,33.4H60.62l-2.4-5.78c-.35-.86-.82-2.33-.82-2.33h0s0,1.35,0,2.33L56.71,36H54Z"/><path class="cls-1" d="M79.8,20.8a8.12,8.12,0,0,1,5.54,1.89L84,24.7a6.43,6.43,0,0,0-4-1.43A4.85,4.85,0,0,0,74.9,28.4a5,5,0,0,0,5,5.34,5.6,5.6,0,0,0,3.74-1.56V30.44H81.35V28.11h4.73V36H83.77v-.71c0-.32,0-.63,0-.63h0a6.35,6.35,0,0,1-4.33,1.59,7.34,7.34,0,0,1-7.31-7.73A7.52,7.52,0,0,1,79.8,20.8Z"/><path class="cls-1" d="M96.14,20.8a7.74,7.74,0,0,1,5.51,2l-1.3,2a6.6,6.6,0,0,0-4.08-1.58,4.87,4.87,0,0,0-5,5.13,5,5,0,0,0,5,5.34,6.41,6.41,0,0,0,4.33-1.9l1.43,2a8,8,0,0,1-5.86,2.41,7.5,7.5,0,0,1-7.71-7.77A7.48,7.48,0,0,1,96.14,20.8Z"/><rect class="cls-1" x="110.14" y="20.8" width="0.87" height="15.35"/></svg>