<svg id="Layer_1" data-name="Layer 1" xmlns="http://www.w3.org/2000/svg" viewBox="0 0 330 89"><defs><style>.cls-1{fill:#010101;}.cls-2{fill:#fcbe36;}.cls-3{fill:#da1f33;}</style></defs><path class="cls-1" d="M75.05,79.44H69.79v5.08H68.9V73.7h6.91v.75h-6v4.24h5.26Z"/><path class="cls-1" d="M76.79,80.38a4.3,4.3,0,0,1,1-2.91,3.5,3.5,0,0,1,5.17,0,4.3,4.3,0,0,1,1,2.91v.25a4.33,4.33,0,0,1-1,2.92,3.52,3.52,0,0,1-5.17,0,4.33,4.33,0,0,1-1-2.92Zm.89.24a3.83,3.83,0,0,0,.7,2.35,2.51,2.51,0,0,0,3.93,0A3.84,3.84,0,0,0,83,80.62v-.24a3.74,3.74,0,0,0-.72-2.33,2.48,2.48,0,0,0-3.92,0,3.79,3.79,0,0,0-.7,2.33Z"/><path class="cls-1" d="M89.46,77.24l-.66,0a2,2,0,0,0-1.38.47,2.68,2.68,0,0,0-.77,1.3v5.55h-.89v-8h.78l.11,1.34v.09a2.89,2.89,0,0,1,.94-1.16,2.34,2.34,0,0,1,1.4-.42l.33,0,.26.06Z"/><path class="cls-1" d="M91.7,76.48l.08,1.33a2.71,2.71,0,0,1,1-1.09,2.9,2.9,0,0,1,1.53-.39,2.65,2.65,0,0,1,1.55.44,2.45,2.45,0,0,1,.88,1.37,3.11,3.11,0,0,1,1-1.33,2.76,2.76,0,0,1,1.64-.48,2.43,2.43,0,0,1,2,.85,4.2,4.2,0,0,1,.7,2.65v4.69h-.9V79.81a3.27,3.27,0,0,0-.52-2.11,1.82,1.82,0,0,0-1.46-.61,2,2,0,0,0-1.6.65A3,3,0,0,0,97,79.4v.15a.82.82,0,0,1,0,.14v4.83h-.9V79.81a3.26,3.26,0,0,0-.53-2.09,1.84,1.84,0,0,0-1.47-.63,2.21,2.21,0,0,0-1.49.48,2.56,2.56,0,0,0-.78,1.29v5.66h-.9v-8Z"/><path class="cls-1" d="M107.46,84.68A3.21,3.21,0,0,1,105,83.56a4,4,0,0,1-1-2.82v-.41a4.18,4.18,0,0,1,1-2.86,3.1,3.1,0,0,1,2.41-1.14,3,3,0,0,1,2.33.94,3.57,3.57,0,0,1,.84,2.49v.76h-5.68v.22a3.56,3.56,0,0,0,.72,2.27,2.32,2.32,0,0,0,1.9.91,4,4,0,0,0,1.42-.23,2.77,2.77,0,0,0,1-.66l.37.61a3.17,3.17,0,0,1-1.15.76A4.32,4.32,0,0,1,107.46,84.68Zm-.11-7.59a2.14,2.14,0,0,0-1.66.75,3.17,3.17,0,0,0-.78,1.89v0h4.72v-.22a2.58,2.58,0,0,0-.62-1.75A2.1,2.1,0,0,0,107.35,77.09Z"/><path class="cls-1" d="M116,77.24l-.66,0a2,2,0,0,0-1.38.47,2.61,2.61,0,0,0-.77,1.3v5.55h-.89v-8h.78l.11,1.34v.09a2.73,2.73,0,0,1,.94-1.16,2.31,2.31,0,0,1,1.39-.42l.34,0,.26.06Z"/><path class="cls-1" d="M118.47,84.52h-.89v-9.6h.89Z"/><path class="cls-1" d="M123.21,82.35l.28,1h.05L126,76.48h1l-3.5,9.33a4.59,4.59,0,0,1-.81,1.39,1.83,1.83,0,0,1-1.46.57l-.38,0a2.34,2.34,0,0,1-.32-.07l.1-.74.29,0,.28,0a1.16,1.16,0,0,0,.93-.41,3.68,3.68,0,0,0,.6-1.06l.42-1.09L120,76.48h1Z"/><path class="cls-1" d="M139.9,73.7V81a3.37,3.37,0,0,1-1.08,2.7,4.17,4.17,0,0,1-2.83.94,4,4,0,0,1-2.78-.94,3.42,3.42,0,0,1-1.06-2.7V73.7H133V81a2.77,2.77,0,0,0,.82,2.14,3,3,0,0,0,2.13.75,3.14,3.14,0,0,0,2.18-.75A2.71,2.71,0,0,0,139,81V73.7Z"/><path class="cls-1" d="M143.71,73.7l4,9.53h.05l4-9.53h1.17V84.52H152V79.74l.07-4.73,0,0-4,9.53h-.62l-4-9.49h0l.08,4.7v4.78h-.88V73.7Z"/><path class="cls-1" d="M163.32,73.7V81a3.37,3.37,0,0,1-1.09,2.7,4.12,4.12,0,0,1-2.82.94,4,4,0,0,1-2.78-.94,3.42,3.42,0,0,1-1.06-2.7V73.7h.89V81a2.77,2.77,0,0,0,.82,2.14,3,3,0,0,0,2.13.75,3.16,3.16,0,0,0,2.18-.75,2.71,2.71,0,0,0,.84-2.14V73.7Z"/><path class="cls-1" d="M173.42,81.14l0,0a3.82,3.82,0,0,1-1.16,2.57,3.9,3.9,0,0,1-2.73.93,3.65,3.65,0,0,1-2.92-1.31A5,5,0,0,1,165.52,80V78.23a5.06,5.06,0,0,1,1.11-3.38,3.65,3.65,0,0,1,2.92-1.31,4,4,0,0,1,2.73.91A3.76,3.76,0,0,1,173.44,77l0,0h-.83a3.39,3.39,0,0,0-.93-2.06,3,3,0,0,0-2.11-.71,2.75,2.75,0,0,0-2.28,1.1,4.44,4.44,0,0,0-.86,2.81V80a4.49,4.49,0,0,0,.86,2.84,2.74,2.74,0,0,0,2.28,1.09,3,3,0,0,0,2.12-.7,3.31,3.31,0,0,0,.92-2.08Z"/><path class="cls-1" d="M244.33,58.9h-5.05l-1.42,4h-1.3l4.59-12.53h1.32l4.6,12.53h-1.3Zm-2.53-7.24s-.27,1-.49,1.62l-1.67,4.55H244l-1.64-4.55c-.21-.58-.48-1.62-.48-1.62Z"/><path class="cls-1" d="M250.35,60.55a4.88,4.88,0,0,0,3.28,1.38,2.26,2.26,0,0,0,2.49-2.18c0-3.15-6.25-2.35-6.25-6.23a3.61,3.61,0,0,1,3.9-3.37,4.88,4.88,0,0,1,3.35,1.21l-.61,1a4.27,4.27,0,0,0-2.74-1.06,2.4,2.4,0,0,0-2.64,2.15c0,3,6.26,2.12,6.26,6.24,0,1.87-1.45,3.38-3.8,3.38a5.53,5.53,0,0,1-4-1.6Z"/><path class="cls-1" d="M261.56,50.36h1.23V62.89h-1.23Z"/><path class="cls-1" d="M274,58.9h-5l-1.42,4h-1.3l4.59-12.53h1.32l4.6,12.53h-1.3Zm-2.53-7.24s-.26,1-.48,1.62l-1.67,4.55h4.31L272,53.28c-.21-.58-.48-1.62-.48-1.62Z"/><path class="cls-1" d="M66.29,30.48h2.28v8a2.78,2.78,0,0,0,5.56,0v-8H76.4v8c0,2.81-2,4.71-5,4.71s-5.07-1.9-5.07-4.71Z"/><path class="cls-1" d="M80.11,30.48h2.27l4.75,7.23a20,20,0,0,1,1,1.94h0s-.12-1.2-.12-1.94V30.48h2.26V43H88.08l-4.74-7.21a19.84,19.84,0,0,1-1-1.94h0s.12,1.19.12,1.94V43H80.11Z"/><path class="cls-1" d="M94.22,30.48H96.5V43H94.22Z"/><path class="cls-1" d="M98.77,30.48h2.45L104,38.64c.25.73.46,1.84.48,1.84h0s.23-1.11.47-1.84l2.77-8.16h2.44L105.6,43h-2.26Z"/><path class="cls-1" d="M112.44,30.48h7.5v1.95h-5.22v3.29h4.21v2h-4.21V41h5.5v2h-7.78Z"/><path class="cls-1" d="M123.29,30.48h4a5.75,5.75,0,0,1,2.52.35,3.52,3.52,0,0,1,2.05,3.42,3.59,3.59,0,0,1-2.12,3.42v0a3.15,3.15,0,0,1,.43.62L132.78,43h-2.54l-2.48-4.67h-2.19V43h-2.28Zm4.32,5.87a1.82,1.82,0,0,0,2-2c0-1.2-.51-1.94-2.29-1.94h-1.73v3.92Z"/><path class="cls-1" d="M135.89,39.79A5,5,0,0,0,139,41.11c1,0,1.82-.49,1.82-1.51,0-2.24-5.91-1.86-5.91-5.7,0-2.08,1.8-3.64,4.2-3.64a5.33,5.33,0,0,1,3.74,1.34l-1,1.86a4.56,4.56,0,0,0-2.77-1.1c-1.06,0-1.89.62-1.89,1.5,0,2.23,5.89,1.68,5.89,5.68,0,2-1.51,3.67-4.13,3.67a6.08,6.08,0,0,1-4.32-1.71Z"/><path class="cls-1" d="M146.08,30.48h2.28V43h-2.28Z"/><path class="cls-1" d="M154.83,32.43h-4.11V30.48h10.5v1.95h-4.11V43h-2.28Z"/><path class="cls-1" d="M166.46,37.76l-4.16-7.28h2.57l2,3.68c.41.78.74,1.7.76,1.68h0s.36-.9.76-1.68l1.94-3.68h2.58l-4.17,7.28V43h-2.27Z"/><path class="cls-1" d="M185.83,30.26a6.33,6.33,0,0,1,6.47,6.39,6.48,6.48,0,1,1-13,0A6.33,6.33,0,0,1,185.83,30.26Zm0,10.87A4.24,4.24,0,0,0,190,36.65a4.13,4.13,0,1,0-8.26,0A4.24,4.24,0,0,0,185.83,41.13Z"/><path class="cls-1" d="M195.14,30.48h7.2v1.95h-4.92V36h4.14v2h-4.14V43h-2.28Z"/><path class="cls-1" d="M210.81,30.48h2.43l2.45,6.19c.29.74.64,1.83.64,1.83h0s.34-1.09.62-1.83l2.45-6.19h2.44l1,12.52h-2.25l-.53-7c-.06-.83,0-1.94,0-1.94h0s-.37,1.21-.67,1.94l-2,4.85h-2l-2-4.85c-.3-.73-.69-2-.69-2h0s0,1.13,0,2l-.53,7h-2.28Z"/><path class="cls-1" d="M232.59,39.79H228.2L227.14,43H224.8l4.41-12.52h2.38L236,43h-2.35Zm-2.2-7.14s-.28,1.23-.53,1.94l-1.11,3.35H232l-1.11-3.35c-.23-.71-.5-1.94-.5-1.94Z"/><path class="cls-1" d="M237.78,30.48h4a5.75,5.75,0,0,1,2.52.35,3.52,3.52,0,0,1,2,3.42,3.59,3.59,0,0,1-2.12,3.42v0a3.15,3.15,0,0,1,.43.62L247.27,43h-2.54l-2.49-4.67h-2.18V43h-2.28Zm4.32,5.87a1.82,1.82,0,0,0,2-2c0-1.2-.51-1.94-2.29-1.94h-1.73v3.92Z"/><path class="cls-1" d="M251.65,37.76l-4.17-7.28h2.58l2,3.68c.4.78.74,1.7.76,1.68h0s.35-.9.76-1.68l1.94-3.68h2.58l-4.17,7.28V43h-2.27Z"/><path class="cls-1" d="M259.88,30.48h2.28V41h5.42v2h-7.7Z"/><path class="cls-1" d="M277.21,39.79h-4.39L271.76,43h-2.35l4.41-12.52h2.38L280.61,43h-2.34ZM275,32.65s-.28,1.23-.53,1.94l-1.11,3.35h3.28l-1.11-3.35c-.23-.71-.49-1.94-.49-1.94Z"/><path class="cls-1" d="M282.39,30.48h2.28l4.75,7.23a20,20,0,0,1,1,1.94h0s-.12-1.2-.12-1.94V30.48h2.26V43h-2.26l-4.75-7.21a21.29,21.29,0,0,1-1-1.94h0s.12,1.19.12,1.94V43h-2.28Z"/><path class="cls-1" d="M296,30.48h4.27c3.86,0,6.38,2.29,6.38,6.24S304.11,43,300.25,43H296ZM300.12,41c2.54,0,4.17-1.5,4.17-4.32s-1.66-4.29-4.17-4.29h-1.87V41Z"/><path class="cls-1" d="M72.08,50.17a6.85,6.85,0,0,1,4.66,1.58l-1.13,1.7a5.4,5.4,0,0,0-3.34-1.2,4.06,4.06,0,0,0-4.3,4.3A4.18,4.18,0,0,0,72.17,61a4.72,4.72,0,0,0,3.14-1.3V58.26H73.39v-2h4v6.6H75.42v-.6c0-.26,0-.53,0-.53h0a5.33,5.33,0,0,1-3.64,1.34,6.16,6.16,0,0,1-6.14-6.49A6.32,6.32,0,0,1,72.08,50.17Z"/><path class="cls-1" d="M80.58,50.38h2.28V60.94h5.42v2h-7.7Z"/><path class="cls-1" d="M96.14,50.17a6.33,6.33,0,0,1,6.48,6.38,6.48,6.48,0,1,1-13,0A6.32,6.32,0,0,1,96.14,50.17Zm0,10.86a4.24,4.24,0,0,0,4.13-4.48,4.13,4.13,0,1,0-8.26,0A4.24,4.24,0,0,0,96.14,61Z"/><path class="cls-1" d="M105.1,50.38h4.48c2.26,0,3.87,1.16,3.87,3.23a3,3,0,0,1-1.52,2.68v0a2.94,2.94,0,0,1,2,3c0,2.5-2,3.63-4.32,3.63H105.1Zm4.48,5.11a1.5,1.5,0,0,0,1.56-1.6,1.45,1.45,0,0,0-1.59-1.55h-2.17v3.15Zm.23,5.45a1.81,1.81,0,1,0,0-3.61h-2.43v3.61Z"/><path class="cls-1" d="M123.36,59.69H119l-1.06,3.21h-2.34L120,50.38h2.38l4.41,12.52h-2.35Zm-2.2-7.14s-.28,1.23-.53,1.94l-1.11,3.35h3.28l-1.11-3.35c-.23-.71-.5-1.94-.5-1.94Z"/><path class="cls-1" d="M129.08,50.38h2.27V60.94h5.42v2h-7.69Z"/><path class="cls-1" d="M149.86,50.17a6.48,6.48,0,0,1,4.62,1.71l-1.09,1.69A5.54,5.54,0,0,0,150,52.25a4.07,4.07,0,0,0-4.19,4.3A4.23,4.23,0,0,0,150,61a5.42,5.42,0,0,0,3.64-1.59l1.2,1.65a6.76,6.76,0,0,1-4.93,2,6.47,6.47,0,0,1,0-12.94Z"/><path class="cls-1" d="M163.85,59.69h-4.39L158.4,62.9h-2.35l4.41-12.52h2.38l4.41,12.52h-2.34Zm-2.21-7.14s-.28,1.23-.53,1.94L160,57.84h3.28l-1.11-3.35c-.23-.71-.49-1.94-.49-1.94Z"/><path class="cls-1" d="M170.29,50.38h2.43l2.45,6.19c.29.74.64,1.83.64,1.83h0s.34-1.09.62-1.83l2.45-6.19h2.44l1,12.52H180.1l-.53-7c-.06-.83,0-1.94,0-1.94h0s-.37,1.22-.67,1.94l-2,4.85h-2l-2-4.85c-.3-.72-.69-2-.69-2h0s0,1.13,0,2l-.53,7h-2.28Z"/><path class="cls-1" d="M185.32,50.38h4.83a3.84,3.84,0,0,1,4,4.07,3.88,3.88,0,0,1-4,4.13h-2.56V62.9h-2.27Zm4.41,6.22a2,2,0,0,0,2.1-2.15,1.94,1.94,0,0,0-2.07-2.11h-2.17V56.6Z"/><path class="cls-1" d="M196.68,50.38H199v8a2.78,2.78,0,0,0,5.56,0v-8h2.28v8c0,2.81-2,4.71-5,4.71s-5.06-1.9-5.06-4.71Z"/><path class="cls-1" d="M210.51,59.69A5,5,0,0,0,213.63,61c1,0,1.82-.5,1.82-1.52,0-2.24-5.91-1.85-5.91-5.7,0-2.08,1.8-3.63,4.2-3.63a5.33,5.33,0,0,1,3.74,1.34l-1,1.85a4.56,4.56,0,0,0-2.77-1.1c-1.06,0-1.89.62-1.89,1.5,0,2.23,5.89,1.68,5.89,5.68,0,2-1.51,3.67-4.13,3.67a6.08,6.08,0,0,1-4.32-1.71Z"/><rect class="cls-1" x="226.84" y="49.12" width="0.85" height="15.02"/><ellipse class="cls-2" cx="14.53" cy="22.31" rx="7.02" ry="1.95" transform="translate(-6.9 6.51) rotate(-20.51)"/><path class="cls-2" d="M33.47,20.33a28.54,28.54,0,0,0-6.8-1.53h0s0,0,0,.06l0,0a1.65,1.65,0,0,1,1.14.9c.73,2-4.26,5.63-11.14,8.2-1.41.53-2.78,1-4.09,1.31L10.9,35.36A65.8,65.8,0,0,0,18.53,33c9.61-3.59,15.14-7.73,16.11-10.85a1.43,1.43,0,0,0,0-.87C34.53,21,34.29,20.64,33.47,20.33Z"/><path class="cls-3" d="M49.52,34.62a0,0,0,0,0-.05,0s0,0,0,0c.29,4.13-10.1,11.35-24.09,16.58-1.34.51-2.67,1-4,1.4l-2.12,7.69c2.66-.73,5.49-1.64,8.47-2.75,11.36-4.25,19.17-9.28,23.19-14a3.36,3.36,0,0,0,.81-2.81,24.2,24.2,0,0,0-1.07-3.53C50.31,36.35,49.93,35.47,49.52,34.62Z"/><path class="cls-3" d="M44.93,27.92a28.3,28.3,0,0,0-4.67-4.09.07.07,0,0,0-.06,0s0,0,0,.05a1.37,1.37,0,0,1,.23.43c1.25,3.32-7.62,9.71-19.81,14.26-6.93,2.6-13.44,4-18,4.19L.19,49.63c5.18.36,13-1.06,22.8-4.71C33.19,41.1,40.2,36.83,43.74,33a7.6,7.6,0,0,0,1.49-2.4A2.64,2.64,0,0,0,44.93,27.92Z"/><path d="M52.4,48.69s0,0,0,0c-2,4.17-10.94,10-22.57,14.38a81.23,81.23,0,0,1-15.45,4.23l-1.86,5.34a67.42,67.42,0,0,0,19.2-4.53c5.31-2,14.76-6.47,18.3-11.31a16.61,16.61,0,0,0,2.46-8.09A0,0,0,0,0,52.4,48.69Z"/><path d="M47.59,63.16s-.05,0-.06,0a56.27,56.27,0,0,1-15,8.31c-1.37.51-2.73,1-4.08,1.36l-.77,2.78a29,29,0,0,0,6.21-1.56A28.5,28.5,0,0,0,47.59,63.21,0,0,0,0,0,47.59,63.16Z"/></svg>